<svg width="48" height="48" viewBox="0 0 48 48" fill="none" xmlns="http://www.w3.org/2000/svg">
<path d="M22.058 5.08C22.6521 4.75008 23.3204 4.57695 24 4.57695C24.6796 4.57695 25.3479 4.75008 25.942 5.08L40.972 13.428C41.2836 13.6013 41.5432 13.8547 41.724 14.162C41.9047 14.4694 42 14.8195 42 15.176V31.646C42.0002 32.3596 41.8095 33.0603 41.4476 33.6754C41.0857 34.2905 40.5659 34.7975 39.942 35.144L25.942 42.92C25.3479 43.2499 24.6796 43.423 24 43.423C23.3204 43.423 22.6521 43.2499 22.058 42.92L8.058 35.142C7.43471 34.7959 6.91526 34.2894 6.55343 33.6751C6.19159 33.0608 6.00053 32.3609 6 31.648V15.176C5.99999 14.8195 6.09528 14.4694 6.27603 14.162C6.45678 13.8547 6.71639 13.6013 7.028 13.428L22.058 5.08Z" stroke="#80525A" stroke-width="2" stroke-linecap="round" stroke-linejoin="round"/>
<path d="M6 14L24 24M24 24L42 14M24 24V43" stroke="#80525A" stroke-width="2" stroke-linejoin="round"/>
<path d="M15 19L33 9M12 24.656L18 28" stroke="#80525A" stroke-width="2" stroke-linecap="round" stroke-linejoin="round"/>
</svg>
