<svg width="48" height="48" viewBox="0 0 48 48" fill="none" xmlns="http://www.w3.org/2000/svg">
<path d="M12.8 24L22.4 32L35.2 16M24 46.4C21.0584 46.4 18.1456 45.8206 15.4279 44.6949C12.7102 43.5692 10.2408 41.9192 8.16078 39.8392C6.08075 37.7592 4.43078 35.2898 3.30507 32.5721C2.17937 29.8544 1.59998 26.9416 1.59998 24C1.59998 21.0584 2.17937 18.1456 3.30507 15.4279C4.43078 12.7102 6.08075 10.2408 8.16078 8.16081C10.2408 6.08077 12.7102 4.4308 15.4279 3.3051C18.1456 2.17939 21.0584 1.6 24 1.6C29.9408 1.6 35.6384 3.95999 39.8392 8.16081C44.04 12.3616 46.4 18.0591 46.4 24C46.4 29.9408 44.04 35.6384 39.8392 39.8392C35.6384 44.04 29.9408 46.4 24 46.4Z" stroke="#80525A" stroke-width="3.2"/>
</svg>
