<svg width="48" height="48" viewBox="0 0 48 48" fill="none" xmlns="http://www.w3.org/2000/svg">
<path d="M40.5 13.875H10.5C10.0027 13.875 9.52581 13.6775 9.17417 13.3258C8.82254 12.9742 8.625 12.4973 8.625 12C8.625 11.5027 8.82254 11.0258 9.17417 10.6742C9.52581 10.3225 10.0027 10.125 10.5 10.125H36C36.2984 10.125 36.5845 10.0065 36.7955 9.7955C37.0065 9.58452 37.125 9.29837 37.125 9C37.125 8.70163 37.0065 8.41548 36.7955 8.2045C36.5845 7.99353 36.2984 7.875 36 7.875H10.5C9.40598 7.875 8.35677 8.3096 7.58318 9.08318C6.8096 9.85677 6.375 10.906 6.375 12V36C6.375 37.094 6.8096 38.1432 7.58318 38.9168C8.35677 39.6904 9.40598 40.125 10.5 40.125H40.5C41.1962 40.125 41.8639 39.8484 42.3562 39.3562C42.8484 38.8639 43.125 38.1962 43.125 37.5V16.5C43.125 15.8038 42.8484 15.1361 42.3562 14.6438C41.8639 14.1516 41.1962 13.875 40.5 13.875ZM40.875 37.5C40.875 37.5995 40.8355 37.6948 40.7652 37.7652C40.6948 37.8355 40.5995 37.875 40.5 37.875H10.5C10.0027 37.875 9.52581 37.6775 9.17417 37.3258C8.82254 36.9742 8.625 36.4973 8.625 36V15.6731C9.20511 15.9709 9.84794 16.1258 10.5 16.125H40.5C40.5995 16.125 40.6948 16.1645 40.7652 16.2348C40.8355 16.3052 40.875 16.4005 40.875 16.5V37.5ZM35.625 26.25C35.625 26.6208 35.515 26.9834 35.309 27.2917C35.103 27.6 34.8101 27.8404 34.4675 27.9823C34.1249 28.1242 33.7479 28.1613 33.3842 28.089C33.0205 28.0166 32.6864 27.8381 32.4242 27.5758C32.1619 27.3136 31.9834 26.9795 31.911 26.6158C31.8387 26.2521 31.8758 25.8751 32.0177 25.5325C32.1596 25.1899 32.4 24.897 32.7083 24.691C33.0166 24.485 33.3792 24.375 33.75 24.375C34.2473 24.375 34.7242 24.5725 35.0758 24.9242C35.4275 25.2758 35.625 25.7527 35.625 26.25Z" fill="#80525A"/>
</svg>
