<svg width="48" height="48" viewBox="0 0 48 48" fill="none" xmlns="http://www.w3.org/2000/svg">
<path d="M42 30V24C42 21.6362 41.5344 19.2956 40.6298 17.1117C39.7252 14.9278 38.3994 12.9435 36.7279 11.2721C35.0565 9.60062 33.0722 8.27475 30.8883 7.37017C28.7044 6.46558 26.3638 6 24 6C21.6362 6 19.2956 6.46558 17.1117 7.37017C14.9278 8.27475 12.9435 9.60062 11.2721 11.2721C9.60062 12.9435 8.27475 14.9278 7.37017 17.1117C6.46558 19.2956 6 21.6362 6 24V30" stroke="#80525A" stroke-width="3" stroke-linecap="round"/>
<path d="M6 30V28.5H4.5V30H6ZM6 31.5H12V28.5H6V31.5ZM12.5 32V38H15.5V32H12.5ZM7.5 38V30H4.5V38H7.5ZM10 40.5C8.62 40.5 7.5 39.38 7.5 38H4.5C4.5 39.4587 5.07946 40.8576 6.11091 41.8891C7.14236 42.9205 8.54131 43.5 10 43.5V40.5ZM12.5 38C12.5 39.38 11.38 40.5 10 40.5V43.5C11.4587 43.5 12.8576 42.9205 13.8891 41.8891C14.9205 40.8576 15.5 39.4587 15.5 38H12.5ZM12 31.5C12.1326 31.5 12.2598 31.5527 12.3536 31.6464C12.4473 31.7402 12.5 31.8674 12.5 32H15.5C15.5 31.0717 15.1313 30.1815 14.4749 29.5251C13.8185 28.8687 12.9283 28.5 12 28.5V31.5ZM42 30H43.5V28.5H42V30ZM36 31.5H42V28.5H36V31.5ZM40.5 30V38H43.5V30H40.5ZM35.5 38V32H32.5V38H35.5ZM38 40.5C36.62 40.5 35.5 39.38 35.5 38H32.5C32.5 39.4587 33.0795 40.8576 34.1109 41.8891C35.1424 42.9205 36.5413 43.5 38 43.5V40.5ZM40.5 38C40.5 39.38 39.38 40.5 38 40.5V43.5C39.4587 43.5 40.8576 42.9205 41.8891 41.8891C42.9205 40.8576 43.5 39.4587 43.5 38H40.5ZM36 28.5C35.0717 28.5 34.1815 28.8687 33.5251 29.5251C32.8687 30.1815 32.5 31.0717 32.5 32H35.5C35.5 31.8674 35.5527 31.7402 35.6464 31.6464C35.7402 31.5527 35.8674 31.5 36 31.5V28.5Z" fill="#80525A"/>
</svg>
